<?xml version="1.0" encoding="UTF-8" standalone="no"?><!-- Generator: Gravit.io --><svg xmlns="http://www.w3.org/2000/svg" xmlns:xlink="http://www.w3.org/1999/xlink" style="isolation:isolate" viewBox="413.651 359.5 156.349 39" width="156.349pt" height="39pt"><path d=" M 465.615 389.377 L 462.842 389.377 L 459.404 378.176 L 459.316 378.176 L 459.316 378.176 Q 459.502 381.594 459.502 382.736 L 459.502 382.736 L 459.502 389.377 L 456.797 389.377 L 456.797 375.1 L 460.918 375.1 L 464.297 386.018 L 464.355 386.018 L 467.939 375.1 L 472.061 375.1 L 472.061 389.377 L 469.238 389.377 L 469.238 382.619 L 469.238 382.619 Q 469.238 382.141 469.253 381.516 L 469.253 381.516 L 469.253 381.516 Q 469.268 380.891 469.385 378.195 L 469.385 378.195 L 469.297 378.195 L 465.615 389.377 L 465.615 389.377 Z  M 483.434 389.377 L 481.354 389.377 L 480.777 387.893 L 480.699 387.893 L 480.699 387.893 Q 479.947 388.84 479.151 389.206 L 479.151 389.206 L 479.151 389.206 Q 478.355 389.572 477.076 389.572 L 477.076 389.572 L 477.076 389.572 Q 475.504 389.572 474.601 388.674 L 474.601 388.674 L 474.601 388.674 Q 473.697 387.775 473.697 386.115 L 473.697 386.115 L 473.697 386.115 Q 473.697 384.377 474.913 383.552 L 474.913 383.552 L 474.913 383.552 Q 476.129 382.727 478.58 382.639 L 478.58 382.639 L 480.475 382.58 L 480.475 382.102 L 480.475 382.102 Q 480.475 380.441 478.775 380.441 L 478.775 380.441 L 478.775 380.441 Q 477.467 380.441 475.699 381.232 L 475.699 381.232 L 474.713 379.221 L 474.713 379.221 Q 476.598 378.234 478.893 378.234 L 478.893 378.234 L 478.893 378.234 Q 481.09 378.234 482.262 379.191 L 482.262 379.191 L 482.262 379.191 Q 483.434 380.148 483.434 382.102 L 483.434 382.102 L 483.434 389.377 L 483.434 389.377 Z  M 480.475 385.217 L 480.475 384.318 L 479.322 384.357 L 479.322 384.357 Q 478.023 384.396 477.389 384.826 L 477.389 384.826 L 477.389 384.826 Q 476.754 385.256 476.754 386.135 L 476.754 386.135 L 476.754 386.135 Q 476.754 387.395 478.199 387.395 L 478.199 387.395 L 478.199 387.395 Q 479.234 387.395 479.854 386.799 L 479.854 386.799 L 479.854 386.799 Q 480.475 386.203 480.475 385.217 L 480.475 385.217 L 480.475 385.217 Z  M 491.594 378.254 L 491.594 378.254 L 491.594 378.254 Q 492.199 378.254 492.6 378.342 L 492.6 378.342 L 492.375 381.135 L 492.375 381.135 Q 492.014 381.037 491.496 381.037 L 491.496 381.037 L 491.496 381.037 Q 490.07 381.037 489.274 381.77 L 489.274 381.77 L 489.274 381.77 Q 488.479 382.502 488.479 383.82 L 488.479 383.82 L 488.479 389.377 L 485.5 389.377 L 485.5 378.459 L 487.756 378.459 L 488.195 380.295 L 488.342 380.295 L 488.342 380.295 Q 488.85 379.377 489.714 378.815 L 489.714 378.815 L 489.714 378.815 Q 490.578 378.254 491.594 378.254 Z  M 496.404 383.439 L 496.443 383.439 L 497.742 381.779 L 500.799 378.459 L 504.158 378.459 L 499.822 383.195 L 504.422 389.377 L 500.984 389.377 L 497.84 384.953 L 496.561 385.979 L 496.561 389.377 L 493.582 389.377 L 493.582 374.182 L 496.561 374.182 L 496.561 380.959 L 496.404 383.439 L 496.404 383.439 Z  M 509.506 380.373 L 509.506 380.373 L 509.506 380.373 Q 508.559 380.373 508.021 380.974 L 508.021 380.974 L 508.021 380.974 Q 507.484 381.574 507.406 382.678 L 507.406 382.678 L 511.586 382.678 L 511.586 382.678 Q 511.566 381.574 511.01 380.974 L 511.01 380.974 L 511.01 380.974 Q 510.453 380.373 509.506 380.373 Z  M 509.926 389.572 L 509.926 389.572 L 509.926 389.572 Q 507.289 389.572 505.805 388.117 L 505.805 388.117 L 505.805 388.117 Q 504.32 386.662 504.32 383.996 L 504.32 383.996 L 504.32 383.996 Q 504.32 381.252 505.692 379.753 L 505.692 379.753 L 505.692 379.753 Q 507.064 378.254 509.486 378.254 L 509.486 378.254 L 509.486 378.254 Q 511.801 378.254 513.09 379.572 L 513.09 379.572 L 513.09 379.572 Q 514.379 380.891 514.379 383.215 L 514.379 383.215 L 514.379 384.66 L 507.338 384.66 L 507.338 384.66 Q 507.387 385.93 508.09 386.643 L 508.09 386.643 L 508.09 386.643 Q 508.793 387.355 510.063 387.355 L 510.063 387.355 L 510.063 387.355 Q 511.049 387.355 511.928 387.15 L 511.928 387.15 L 511.928 387.15 Q 512.807 386.945 513.764 386.496 L 513.764 386.496 L 513.764 388.801 L 513.764 388.801 Q 512.982 389.191 512.094 389.382 L 512.094 389.382 L 512.094 389.382 Q 511.205 389.572 509.926 389.572 Z  M 520.4 387.199 L 520.4 387.199 L 520.4 387.199 Q 521.182 387.199 522.275 386.857 L 522.275 386.857 L 522.275 389.074 L 522.275 389.074 Q 521.162 389.572 519.541 389.572 L 519.541 389.572 L 519.541 389.572 Q 517.754 389.572 516.938 388.669 L 516.938 388.669 L 516.938 388.669 Q 516.123 387.766 516.123 385.959 L 516.123 385.959 L 516.123 380.695 L 514.697 380.695 L 514.697 379.436 L 516.338 378.439 L 517.197 376.135 L 519.102 376.135 L 519.102 378.459 L 522.158 378.459 L 522.158 380.695 L 519.102 380.695 L 519.102 385.959 L 519.102 385.959 Q 519.102 386.594 519.458 386.896 L 519.458 386.896 L 519.458 386.896 Q 519.814 387.199 520.4 387.199 Z  M 529.479 389.572 L 529.479 389.572 L 529.479 389.572 Q 527.555 389.572 526.461 388.176 L 526.461 388.176 L 526.305 388.176 L 526.305 388.176 Q 526.461 389.543 526.461 389.758 L 526.461 389.758 L 526.461 394.182 L 523.482 394.182 L 523.482 378.459 L 525.904 378.459 L 526.324 379.875 L 526.461 379.875 L 526.461 379.875 Q 527.506 378.254 529.557 378.254 L 529.557 378.254 L 529.557 378.254 Q 531.49 378.254 532.584 379.748 L 532.584 379.748 L 532.584 379.748 Q 533.678 381.242 533.678 383.898 L 533.678 383.898 L 533.678 383.898 Q 533.678 385.646 533.165 386.936 L 533.165 386.936 L 533.165 386.936 Q 532.652 388.225 531.705 388.898 L 531.705 388.898 L 531.705 388.898 Q 530.758 389.572 529.479 389.572 Z  M 528.6 380.637 L 528.6 380.637 L 528.6 380.637 Q 527.496 380.637 526.988 381.315 L 526.988 381.315 L 526.988 381.315 Q 526.48 381.994 526.461 383.557 L 526.461 383.557 L 526.461 383.879 L 526.461 383.879 Q 526.461 385.637 526.983 386.398 L 526.983 386.398 L 526.983 386.398 Q 527.506 387.16 528.639 387.16 L 528.639 387.16 L 528.639 387.16 Q 530.641 387.16 530.641 383.859 L 530.641 383.859 L 530.641 383.859 Q 530.641 382.248 530.147 381.442 L 530.147 381.442 L 530.147 381.442 Q 529.654 380.637 528.6 380.637 Z  M 538.117 374.182 L 538.117 389.377 L 535.139 389.377 L 535.139 374.182 L 538.117 374.182 L 538.117 374.182 Z  M 549.256 389.377 L 547.176 389.377 L 546.6 387.893 L 546.521 387.893 L 546.521 387.893 Q 545.77 388.84 544.974 389.206 L 544.974 389.206 L 544.974 389.206 Q 544.178 389.572 542.898 389.572 L 542.898 389.572 L 542.898 389.572 Q 541.326 389.572 540.423 388.674 L 540.423 388.674 L 540.423 388.674 Q 539.52 387.775 539.52 386.115 L 539.52 386.115 L 539.52 386.115 Q 539.52 384.377 540.735 383.552 L 540.735 383.552 L 540.735 383.552 Q 541.951 382.727 544.402 382.639 L 544.402 382.639 L 546.297 382.58 L 546.297 382.102 L 546.297 382.102 Q 546.297 380.441 544.598 380.441 L 544.598 380.441 L 544.598 380.441 Q 543.289 380.441 541.521 381.232 L 541.521 381.232 L 540.535 379.221 L 540.535 379.221 Q 542.42 378.234 544.715 378.234 L 544.715 378.234 L 544.715 378.234 Q 546.912 378.234 548.084 379.191 L 548.084 379.191 L 548.084 379.191 Q 549.256 380.148 549.256 382.102 L 549.256 382.102 L 549.256 389.377 L 549.256 389.377 Z  M 546.297 385.217 L 546.297 384.318 L 545.145 384.357 L 545.145 384.357 Q 543.846 384.396 543.211 384.826 L 543.211 384.826 L 543.211 384.826 Q 542.576 385.256 542.576 386.135 L 542.576 386.135 L 542.576 386.135 Q 542.576 387.395 544.021 387.395 L 544.021 387.395 L 544.021 387.395 Q 545.057 387.395 545.677 386.799 L 545.677 386.799 L 545.677 386.799 Q 546.297 386.203 546.297 385.217 L 546.297 385.217 L 546.297 385.217 Z  M 555.756 389.572 L 555.756 389.572 L 555.756 389.572 Q 550.658 389.572 550.658 383.977 L 550.658 383.977 L 550.658 383.977 Q 550.658 381.193 552.045 379.724 L 552.045 379.724 L 552.045 379.724 Q 553.432 378.254 556.02 378.254 L 556.02 378.254 L 556.02 378.254 Q 557.914 378.254 559.418 378.996 L 559.418 378.996 L 558.539 381.301 L 558.539 381.301 Q 557.836 381.018 557.23 380.837 L 557.23 380.837 L 557.23 380.837 Q 556.625 380.656 556.02 380.656 L 556.02 380.656 L 556.02 380.656 Q 553.695 380.656 553.695 383.957 L 553.695 383.957 L 553.695 383.957 Q 553.695 387.16 556.02 387.16 L 556.02 387.16 L 556.02 387.16 Q 556.879 387.16 557.611 386.931 L 557.611 386.931 L 557.611 386.931 Q 558.344 386.701 559.076 386.213 L 559.076 386.213 L 559.076 388.762 L 559.076 388.762 Q 558.354 389.221 557.616 389.396 L 557.616 389.396 L 557.616 389.396 Q 556.879 389.572 555.756 389.572 Z  M 565.127 380.373 L 565.127 380.373 L 565.127 380.373 Q 564.18 380.373 563.643 380.974 L 563.643 380.974 L 563.643 380.974 Q 563.105 381.574 563.027 382.678 L 563.027 382.678 L 567.207 382.678 L 567.207 382.678 Q 567.188 381.574 566.631 380.974 L 566.631 380.974 L 566.631 380.974 Q 566.074 380.373 565.127 380.373 Z  M 565.547 389.572 L 565.547 389.572 L 565.547 389.572 Q 562.91 389.572 561.426 388.117 L 561.426 388.117 L 561.426 388.117 Q 559.941 386.662 559.941 383.996 L 559.941 383.996 L 559.941 383.996 Q 559.941 381.252 561.313 379.753 L 561.313 379.753 L 561.313 379.753 Q 562.686 378.254 565.107 378.254 L 565.107 378.254 L 565.107 378.254 Q 567.422 378.254 568.711 379.572 L 568.711 379.572 L 568.711 379.572 Q 570 380.891 570 383.215 L 570 383.215 L 570 384.66 L 562.959 384.66 L 562.959 384.66 Q 563.008 385.93 563.711 386.643 L 563.711 386.643 L 563.711 386.643 Q 564.414 387.355 565.684 387.355 L 565.684 387.355 L 565.684 387.355 Q 566.67 387.355 567.549 387.15 L 567.549 387.15 L 567.549 387.15 Q 568.428 386.945 569.385 386.496 L 569.385 386.496 L 569.385 388.801 L 569.385 388.801 Q 568.604 389.191 567.715 389.382 L 567.715 389.382 L 567.715 389.382 Q 566.826 389.572 565.547 389.572 Z " fill="rgb(255,255,255)"/><path d=" M 423 397 C 420.154 385.263 418.831 375.273 419 367 C 422.403 369.785 425.746 376.462 429 387 C 433.802 376.897 440.479 370.907 449 369 C 448.817 374.147 446.494 383.49 442 397 C 449.61 385.543 452.933 374.867 452 365 C 440.224 367.151 432.547 372.807 429 382 C 428.277 372.21 423.933 365.2 416 361 C 413.715 373.755 416.038 385.745 423 397" fill="rgb(255,255,255)" vector-effect="non-scaling-stroke" stroke-width="1" stroke="rgb(255,255,255)" stroke-linejoin="miter" stroke-linecap="square" stroke-miterlimit="3"/><path d=" M 437.078 371.924 Q 436.723 372.137 436.318 372.035 Q 435.914 371.934 435.7 371.579 Q 435.487 371.224 435.589 370.819 Q 435.69 370.415 436.045 370.202 Q 436.4 369.989 436.805 370.09 Q 437.209 370.191 437.422 370.546 Q 437.635 370.901 437.534 371.306 Q 437.433 371.71 437.078 371.924 Z  M 441.382 369.341 Q 441.027 369.554 440.622 369.453 Q 440.218 369.352 440.005 368.997 Q 439.792 368.642 439.893 368.237 Q 439.994 367.833 440.349 367.62 Q 440.704 367.407 441.109 367.508 Q 441.513 367.609 441.726 367.964 Q 441.939 368.319 441.838 368.724 Q 441.737 369.128 441.382 369.341 Z  M 433.211 365.189 L 434.351 366.426 C 434.465 366.549 434.671 366.573 434.81 366.478 L 437.344 364.746 C 437.513 364.63 437.661 364.37 437.675 364.165 L 437.78 362.577 C 437.796 362.324 437.633 362.225 437.416 362.355 L 433.26 364.849 C 433.131 364.926 433.109 365.078 433.211 365.189 Z  M 432.3 364.254 L 438.003 360.832 Q 438.251 360.683 438.512 360.827 Q 438.774 360.97 438.791 361.267 L 438.649 364.493 Q 438.622 364.849 438.532 365.017 Q 438.441 365.185 438.167 365.397 L 434.857 367.588 L 435.134 368.476 C 435.209 368.716 435.445 368.806 435.661 368.676 L 440.435 365.812 L 440.952 366.673 L 435.787 369.771 Q 435.302 370.062 434.8 369.785 Q 434.297 369.509 434.272 368.954 L 433.85 367.372 L 431.354 364.822 L 430.493 365.338 L 429.976 364.477 L 431.375 363.638 L 432.3 364.254 Z " fill="rgb(255,255,255)" vector-effect="non-scaling-stroke" stroke-width="0.5" stroke="rgb(255,255,255)" stroke-linejoin="miter" stroke-linecap="butt" stroke-miterlimit="4"/></svg>